<?xml version="1.0" standalone="no"?>
<svg xmlns:xlink="http://www.w3.org/1999/xlink" id="wave" style="transform:rotate(180deg); transition: 0.3s" viewBox="0 0 1440 400" version="1.1" xmlns="http://www.w3.org/2000/svg"><defs><linearGradient id="sw-gradient-0" x1="0" x2="0" y1="1" y2="0"><stop stop-color="rgba(255, 249, 234, 1)" offset="0%"/><stop stop-color="rgba(255, 249, 234, 1)" offset="100%"/></linearGradient></defs><path style="transform:translate(0, 0px); opacity:1" fill="url(#sw-gradient-0)" d="M0,120L48,146.7C96,173,192,227,288,260C384,293,480,307,576,266.7C672,227,768,133,864,133.3C960,133,1056,227,1152,280C1248,333,1344,347,1440,333.3C1536,320,1632,280,1728,260C1824,240,1920,240,2016,213.3C2112,187,2208,133,2304,113.3C2400,93,2496,107,2592,93.3C2688,80,2784,40,2880,60C2976,80,3072,160,3168,220C3264,280,3360,320,3456,300C3552,280,3648,200,3744,146.7C3840,93,3936,67,4032,100C4128,133,4224,227,4320,220C4416,213,4512,107,4608,80C4704,53,4800,107,4896,166.7C4992,227,5088,293,5184,326.7C5280,360,5376,360,5472,306.7C5568,253,5664,147,5760,86.7C5856,27,5952,13,6048,6.7C6144,0,6240,0,6336,13.3C6432,27,6528,53,6624,53.3C6720,53,6816,27,6864,13.3L6912,0L6912,400L6864,400C6816,400,6720,400,6624,400C6528,400,6432,400,6336,400C6240,400,6144,400,6048,400C5952,400,5856,400,5760,400C5664,400,5568,400,5472,400C5376,400,5280,400,5184,400C5088,400,4992,400,4896,400C4800,400,4704,400,4608,400C4512,400,4416,400,4320,400C4224,400,4128,400,4032,400C3936,400,3840,400,3744,400C3648,400,3552,400,3456,400C3360,400,3264,400,3168,400C3072,400,2976,400,2880,400C2784,400,2688,400,2592,400C2496,400,2400,400,2304,400C2208,400,2112,400,2016,400C1920,400,1824,400,1728,400C1632,400,1536,400,1440,400C1344,400,1248,400,1152,400C1056,400,960,400,864,400C768,400,672,400,576,400C480,400,384,400,288,400C192,400,96,400,48,400L0,400Z"/></svg>