<?xml version="1.0" standalone="no"?>
<svg xmlns:xlink="http://www.w3.org/1999/xlink" id="wave" style="transform:rotate(180deg); transition: 0.3s" viewBox="0 0 1440 490" version="1.1" xmlns="http://www.w3.org/2000/svg"><defs><linearGradient id="sw-gradient-0" x1="0" x2="0" y1="1" y2="0"><stop stop-color="rgba(255, 249, 234, 1)" offset="0%"/><stop stop-color="rgba(255, 249, 234, 1)" offset="100%"/></linearGradient></defs><path style="transform:translate(0, 0px); opacity:1" fill="url(#sw-gradient-0)" d="M0,147L240,179.7C480,212,960,278,1440,318.5C1920,359,2400,376,2880,326.7C3360,278,3840,163,4320,163.3C4800,163,5280,278,5760,343C6240,408,6720,425,7200,408.3C7680,392,8160,343,8640,318.5C9120,294,9600,294,10080,261.3C10560,229,11040,163,11520,138.8C12000,114,12480,131,12960,114.3C13440,98,13920,49,14400,73.5C14880,98,15360,196,15840,269.5C16320,343,16800,392,17280,367.5C17760,343,18240,245,18720,179.7C19200,114,19680,82,20160,122.5C20640,163,21120,278,21600,269.5C22080,261,22560,131,23040,98C23520,65,24000,131,24480,204.2C24960,278,25440,359,25920,400.2C26400,441,26880,441,27360,375.7C27840,310,28320,180,28800,106.2C29280,33,29760,16,30240,8.2C30720,0,31200,0,31680,16.3C32160,33,32640,65,33120,65.3C33600,65,34080,33,34320,16.3L34560,0L34560,490L34320,490C34080,490,33600,490,33120,490C32640,490,32160,490,31680,490C31200,490,30720,490,30240,490C29760,490,29280,490,28800,490C28320,490,27840,490,27360,490C26880,490,26400,490,25920,490C25440,490,24960,490,24480,490C24000,490,23520,490,23040,490C22560,490,22080,490,21600,490C21120,490,20640,490,20160,490C19680,490,19200,490,18720,490C18240,490,17760,490,17280,490C16800,490,16320,490,15840,490C15360,490,14880,490,14400,490C13920,490,13440,490,12960,490C12480,490,12000,490,11520,490C11040,490,10560,490,10080,490C9600,490,9120,490,8640,490C8160,490,7680,490,7200,490C6720,490,6240,490,5760,490C5280,490,4800,490,4320,490C3840,490,3360,490,2880,490C2400,490,1920,490,1440,490C960,490,480,490,240,490L0,490Z"/></svg>